<?xml version="1.0" encoding="UTF-8" standalone="no"?><svg xmlns="http://www.w3.org/2000/svg" xmlns:xlink="http://www.w3.org/1999/xlink" contentScriptType="application/ecmascript" contentStyleType="text/css" height="212px" preserveAspectRatio="none" style="width:349px;height:212px;" version="1.1" viewBox="0 0 349 212" width="349px" zoomAndPan="magnify"><defs><filter height="300%" id="f1xb2pyqdtw7ir" width="300%" x="-1" y="-1"><feGaussianBlur result="blurOut" stdDeviation="2.0"/><feColorMatrix in="blurOut" result="blurOut2" type="matrix" values="0 0 0 0 0 0 0 0 0 0 0 0 0 0 0 0 0 0 .4 0"/><feOffset dx="4.0" dy="4.0" in="blurOut2" result="blurOut3"/><feBlend in="SourceGraphic" in2="blurOut3" mode="normal"/></filter></defs><g><!--MD5=[217537f29afe639f347895754667a4fd]
class p--><rect codeLine="9" fill="#F0F8FF" filter="url(#f1xb2pyqdtw7ir)" height="65.9102" id="p" rx="5" ry="5" style="stroke: #2F4F4F; stroke-width: 1.5;" width="76" x="140.5" y="7"/><ellipse cx="155.5" cy="23" fill="#A9DCDF" rx="11" ry="11" style="stroke: #2F4F4F; stroke-width: 1.0;"/><path d="M155.3633,18.3481 L154.2095,23.4199 L156.5254,23.4199 Z M153.8691,16.1069 L156.8657,16.1069 L160.2109,28.5 L157.7622,28.5 L156.9985,25.437 L153.7197,25.437 L152.9727,28.5 L150.5239,28.5 Z "/><text fill="#000000" font-family="TrebuchetMS" font-size="12" font-style="italic" lengthAdjust="spacingAndGlyphs" textLength="44" x="169.5" y="27.3008">Pizzeria</text><line style="stroke: #2F4F4F; stroke-width: 1.5;" x1="141.5" x2="215.5" y1="39" y2="39"/><text fill="#000000" font-family="sans-serif" font-size="11" lengthAdjust="spacingAndGlyphs" textLength="9" x="146.5" y="53.6348">...</text><text fill="#000000" font-family="sans-serif" font-size="11" lengthAdjust="spacingAndGlyphs" textLength="9" x="146.5" y="66.5898">...</text><!--MD5=[f2291d033c38fbe707e149ea6a2354e0]
class PizzeriaStyleStrasbourg--><rect codeLine="14" fill="#F0F8FF" filter="url(#f1xb2pyqdtw7ir)" height="65.9102" id="PizzeriaStyleStrasbourg" rx="5" ry="5" style="stroke: #2F4F4F; stroke-width: 1.5;" width="161" x="7" y="133"/><ellipse cx="22" cy="149" fill="#ADD1B2" rx="11" ry="11" style="stroke: #2F4F4F; stroke-width: 1.0;"/><path d="M24.4731,155.1431 Q23.8921,155.4419 23.2529,155.5913 Q22.6138,155.7407 21.9082,155.7407 Q19.4014,155.7407 18.0815,154.0889 Q16.7617,152.437 16.7617,149.3159 Q16.7617,146.1865 18.0815,144.5347 Q19.4014,142.8828 21.9082,142.8828 Q22.6138,142.8828 23.2612,143.0322 Q23.9087,143.1816 24.4731,143.4805 L24.4731,146.2031 Q23.8423,145.6221 23.2488,145.3523 Q22.6553,145.0825 22.0244,145.0825 Q20.6797,145.0825 19.9949,146.1492 Q19.3101,147.2158 19.3101,149.3159 Q19.3101,151.4077 19.9949,152.4744 Q20.6797,153.541 22.0244,153.541 Q22.6553,153.541 23.2488,153.2712 Q23.8423,153.0015 24.4731,152.4204 Z "/><text fill="#000000" font-family="TrebuchetMS" font-size="12" lengthAdjust="spacingAndGlyphs" textLength="129" x="36" y="153.3008">PizzeriaStyleStrasbourg</text><line style="stroke: #2F4F4F; stroke-width: 1.5;" x1="8" x2="167" y1="165" y2="165"/><text fill="#000000" font-family="sans-serif" font-size="11" lengthAdjust="spacingAndGlyphs" textLength="9" x="13" y="179.6348">...</text><text fill="#000000" font-family="sans-serif" font-size="11" lengthAdjust="spacingAndGlyphs" textLength="9" x="13" y="192.5898">...</text><!--MD5=[5aa41ad15a4ca5a42c9d9b899a205fab]
class PizzeriaStyleBrest--><rect codeLine="19" fill="#F0F8FF" filter="url(#f1xb2pyqdtw7ir)" height="65.9102" id="PizzeriaStyleBrest" rx="5" ry="5" style="stroke: #2F4F4F; stroke-width: 1.5;" width="132" x="203.5" y="133"/><ellipse cx="218.5" cy="149" fill="#ADD1B2" rx="11" ry="11" style="stroke: #2F4F4F; stroke-width: 1.0;"/><path d="M220.9731,155.1431 Q220.3921,155.4419 219.7529,155.5913 Q219.1138,155.7407 218.4082,155.7407 Q215.9014,155.7407 214.5815,154.0889 Q213.2617,152.437 213.2617,149.3159 Q213.2617,146.1865 214.5815,144.5347 Q215.9014,142.8828 218.4082,142.8828 Q219.1138,142.8828 219.7612,143.0322 Q220.4087,143.1816 220.9731,143.4805 L220.9731,146.2031 Q220.3423,145.6221 219.7488,145.3523 Q219.1553,145.0825 218.5244,145.0825 Q217.1797,145.0825 216.4949,146.1492 Q215.8101,147.2158 215.8101,149.3159 Q215.8101,151.4077 216.4949,152.4744 Q217.1797,153.541 218.5244,153.541 Q219.1553,153.541 219.7488,153.2712 Q220.3423,153.0015 220.9731,152.4204 Z "/><text fill="#000000" font-family="TrebuchetMS" font-size="12" lengthAdjust="spacingAndGlyphs" textLength="100" x="232.5" y="153.3008">PizzeriaStyleBrest</text><line style="stroke: #2F4F4F; stroke-width: 1.5;" x1="204.5" x2="334.5" y1="165" y2="165"/><text fill="#000000" font-family="sans-serif" font-size="11" lengthAdjust="spacingAndGlyphs" textLength="9" x="209.5" y="179.6348">...</text><text fill="#000000" font-family="sans-serif" font-size="11" lengthAdjust="spacingAndGlyphs" textLength="9" x="209.5" y="192.5898">...</text><!--MD5=[73a798513c3ad909bf1d28b90f5c6e2e]
reverse link p to PizzeriaStyleStrasbourg--><path d="M142.81,89.64 C132.15,104.16 120.73,119.72 111.05,132.91 " fill="none" id="p-backto-PizzeriaStyleStrasbourg" style="stroke: #000000; stroke-width: 1.0;"/><polygon fill="none" points="137.35,85.24,154.83,73.26,148.64,93.52,137.35,85.24" style="stroke: #000000; stroke-width: 1.0;"/><!--MD5=[52eb9e34decacfd415bef80ff731c0cd]
reverse link p to PizzeriaStyleBrest--><path d="M214.19,89.64 C224.85,104.16 236.27,119.72 245.95,132.91 " fill="none" id="p-backto-PizzeriaStyleBrest" style="stroke: #000000; stroke-width: 1.0;"/><polygon fill="none" points="208.36,93.52,202.17,73.26,219.65,85.24,208.36,93.52" style="stroke: #000000; stroke-width: 1.0;"/><!--MD5=[fc6bb3d405bc1511880986ba256f82fb]
@startuml

'- - - - - - - - - - - - - - - - - - - - - - - - - - - - - - - - - - -
' UML concepts illustrated
' JMB 2014
'- - - - - - - - - - - - - - - - - - - - - - - - - - - - - - - - - - -

!include config.cfg

abstract class p as "Pizzeria" {
  ...
  ...
}

class PizzeriaStyleStrasbourg extends p {
  ...
  ...
}

class PizzeriaStyleBrest extends p {
  ...
  ...
}


@enduml

@startuml



hide empty members
hide empty methods


skinparam package {
	BackgroundColor empty
	BorderColor DarkSlateGray
	ArrowColor Black
	FontColor Black
	FontSize 12
	FontName TrebuchetMS
}
skinparam roundcorner 10

skinparam class {
	BackgroundColor AliceBlue
	BorderColor DarkSlateGray
	ArrowColor Black
	FontColor Black
	FontSize 12
	FontName TrebuchetMS
}
skinparam arrow {
    MessageAlign center
}

abstract class p as "Pizzeria" {
  ...
  ...
}

class PizzeriaStyleStrasbourg extends p {
  ...
  ...
}

class PizzeriaStyleBrest extends p {
  ...
  ...
}


@enduml

PlantUML version 1.2020.18(Wed Sep 30 21:40:44 CEST 2020)
(GPL source distribution)
Java Runtime: OpenJDK Runtime Environment
JVM: OpenJDK 64-Bit Server VM
Default Encoding: UTF-8
Language: fr
Country: FR
--></g></svg>