<?xml version="1.0" encoding="UTF-8" standalone="no"?><svg xmlns="http://www.w3.org/2000/svg" xmlns:xlink="http://www.w3.org/1999/xlink" contentScriptType="application/ecmascript" contentStyleType="text/css" height="145px" preserveAspectRatio="none" style="width:489px;height:145px;" version="1.1" viewBox="0 0 489 145" width="489px" zoomAndPan="magnify"><defs><filter height="300%" id="f1lpmcuwm4do9c" width="300%" x="-1" y="-1"><feGaussianBlur result="blurOut" stdDeviation="2.0"/><feColorMatrix in="blurOut" result="blurOut2" type="matrix" values="0 0 0 0 0 0 0 0 0 0 0 0 0 0 0 0 0 0 .4 0"/><feOffset dx="4.0" dy="4.0" in="blurOut2" result="blurOut3"/><feBlend in="SourceGraphic" in2="blurOut3" mode="normal"/></filter></defs><g><!--MD5=[5c5a2dd8ed299478ae091ad6bda6d6bd]
class Pizza--><rect codeLine="9" fill="#F0F8FF" filter="url(#f1lpmcuwm4do9c)" height="32" id="Pizza" rx="5" ry="5" style="stroke: #2F4F4F; stroke-width: 1.5;" width="61" x="241.5" y="7"/><ellipse cx="256.5" cy="23" fill="#A9DCDF" rx="11" ry="11" style="stroke: #2F4F4F; stroke-width: 1.0;"/><path d="M256.3633,18.3481 L255.2095,23.4199 L257.5254,23.4199 Z M254.8691,16.1069 L257.8657,16.1069 L261.2109,28.5 L258.7622,28.5 L257.9985,25.437 L254.7197,25.437 L253.9727,28.5 L251.5239,28.5 Z "/><text fill="#000000" font-family="TrebuchetMS" font-size="12" font-style="italic" lengthAdjust="spacingAndGlyphs" textLength="29" x="270.5" y="27.3008">Pizza</text><!--MD5=[064a3497197ecbc4f7b0fcfa5398a337]
class PizzaFromage--><rect codeLine="12" fill="#F0F8FF" filter="url(#f1lpmcuwm4do9c)" height="32" id="PizzaFromage" rx="5" ry="5" style="stroke: #2F4F4F; stroke-width: 1.5;" width="106" x="7" y="99"/><ellipse cx="22" cy="115" fill="#ADD1B2" rx="11" ry="11" style="stroke: #2F4F4F; stroke-width: 1.0;"/><path d="M24.4731,121.1431 Q23.8921,121.4419 23.2529,121.5913 Q22.6138,121.7407 21.9082,121.7407 Q19.4014,121.7407 18.0815,120.0889 Q16.7617,118.437 16.7617,115.3159 Q16.7617,112.1865 18.0815,110.5347 Q19.4014,108.8828 21.9082,108.8828 Q22.6138,108.8828 23.2612,109.0322 Q23.9087,109.1816 24.4731,109.4805 L24.4731,112.2031 Q23.8423,111.6221 23.2488,111.3523 Q22.6553,111.0825 22.0244,111.0825 Q20.6797,111.0825 19.9949,112.1492 Q19.3101,113.2158 19.3101,115.3159 Q19.3101,117.4077 19.9949,118.4744 Q20.6797,119.541 22.0244,119.541 Q22.6553,119.541 23.2488,119.2712 Q23.8423,119.0015 24.4731,118.4204 Z "/><text fill="#000000" font-family="TrebuchetMS" font-size="12" lengthAdjust="spacingAndGlyphs" textLength="74" x="36" y="119.3008">PizzaFromage</text><!--MD5=[ddd7db25f0991baf793cf25835300225]
class PizzaGrecque--><rect codeLine="13" fill="#F0F8FF" filter="url(#f1lpmcuwm4do9c)" height="32" id="PizzaGrecque" rx="5" ry="5" style="stroke: #2F4F4F; stroke-width: 1.5;" width="107" x="148.5" y="99"/><ellipse cx="163.5" cy="115" fill="#ADD1B2" rx="11" ry="11" style="stroke: #2F4F4F; stroke-width: 1.0;"/><path d="M165.9731,121.1431 Q165.3921,121.4419 164.7529,121.5913 Q164.1138,121.7407 163.4082,121.7407 Q160.9014,121.7407 159.5815,120.0889 Q158.2617,118.437 158.2617,115.3159 Q158.2617,112.1865 159.5815,110.5347 Q160.9014,108.8828 163.4082,108.8828 Q164.1138,108.8828 164.7612,109.0322 Q165.4087,109.1816 165.9731,109.4805 L165.9731,112.2031 Q165.3423,111.6221 164.7488,111.3523 Q164.1553,111.0825 163.5244,111.0825 Q162.1797,111.0825 161.4949,112.1492 Q160.8101,113.2158 160.8101,115.3159 Q160.8101,117.4077 161.4949,118.4744 Q162.1797,119.541 163.5244,119.541 Q164.1553,119.541 164.7488,119.2712 Q165.3423,119.0015 165.9731,118.4204 Z "/><text fill="#000000" font-family="TrebuchetMS" font-size="12" lengthAdjust="spacingAndGlyphs" textLength="75" x="177.5" y="119.3008">PizzaGrecque</text><!--MD5=[4dab1756dfd813fe55215149ace49fe2]
class PizzaPoivrons--><rect codeLine="14" fill="#F0F8FF" filter="url(#f1lpmcuwm4do9c)" height="32" id="PizzaPoivrons" rx="5" ry="5" style="stroke: #2F4F4F; stroke-width: 1.5;" width="105" x="290.5" y="99"/><ellipse cx="305.5" cy="115" fill="#ADD1B2" rx="11" ry="11" style="stroke: #2F4F4F; stroke-width: 1.0;"/><path d="M307.9731,121.1431 Q307.3921,121.4419 306.7529,121.5913 Q306.1138,121.7407 305.4082,121.7407 Q302.9014,121.7407 301.5815,120.0889 Q300.2617,118.437 300.2617,115.3159 Q300.2617,112.1865 301.5815,110.5347 Q302.9014,108.8828 305.4082,108.8828 Q306.1138,108.8828 306.7612,109.0322 Q307.4087,109.1816 307.9731,109.4805 L307.9731,112.2031 Q307.3423,111.6221 306.7488,111.3523 Q306.1553,111.0825 305.5244,111.0825 Q304.1797,111.0825 303.4949,112.1492 Q302.8101,113.2158 302.8101,115.3159 Q302.8101,117.4077 303.4949,118.4744 Q304.1797,119.541 305.5244,119.541 Q306.1553,119.541 306.7488,119.2712 Q307.3423,119.0015 307.9731,118.4204 Z "/><text fill="#000000" font-family="TrebuchetMS" font-size="12" lengthAdjust="spacingAndGlyphs" textLength="73" x="319.5" y="119.3008">PizzaPoivrons</text><!--MD5=[8ff8237e612689832a9d65c75b6c813b]
class PizzaFromageStyleCorse--><rect codeLine="16" fill="#F0F8FF" filter="url(#f1lpmcuwm4do9c)" height="32" id="PizzaFromageStyleCorse" rx="5" ry="5" style="stroke: #2F4F4F; stroke-width: 1.5;" width="44" x="431" y="99"/><ellipse cx="446" cy="115" fill="#ADD1B2" rx="11" ry="11" style="stroke: #2F4F4F; stroke-width: 1.0;"/><path d="M448.4731,121.1431 Q447.8921,121.4419 447.2529,121.5913 Q446.6138,121.7407 445.9082,121.7407 Q443.4014,121.7407 442.0815,120.0889 Q440.7617,118.437 440.7617,115.3159 Q440.7617,112.1865 442.0815,110.5347 Q443.4014,108.8828 445.9082,108.8828 Q446.6138,108.8828 447.2612,109.0322 Q447.9087,109.1816 448.4731,109.4805 L448.4731,112.2031 Q447.8423,111.6221 447.2488,111.3523 Q446.6553,111.0825 446.0244,111.0825 Q444.6797,111.0825 443.9949,112.1492 Q443.3101,113.2158 443.3101,115.3159 Q443.3101,117.4077 443.9949,118.4744 Q444.6797,119.541 446.0244,119.541 Q446.6553,119.541 447.2488,119.2712 Q447.8423,119.0015 448.4731,118.4204 Z "/><text fill="#000000" font-family="TrebuchetMS" font-size="12" lengthAdjust="spacingAndGlyphs" textLength="12" x="460" y="119.3008">...</text><!--MD5=[9e2a42c767d6f65c35b72a253149c0f9]
reverse link Pizza to PizzaFromage--><path d="M222.56,44.99 C183.61,61.52 130.26,84.17 95.46,98.94 " fill="none" id="Pizza-backto-PizzaFromage" style="stroke: #000000; stroke-width: 1.0;"/><polygon fill="none" points="220.03,38.46,241.17,37.09,225.5,51.35,220.03,38.46" style="stroke: #000000; stroke-width: 1.0;"/><!--MD5=[bdbd555c6dffcad960d87bfe06c1168d]
reverse link Pizza to PizzaGrecque--><path d="M247.73,55.21 C236.2,70.03 222.96,87.06 213.7,98.96 " fill="none" id="Pizza-backto-PizzaGrecque" style="stroke: #000000; stroke-width: 1.0;"/><polygon fill="none" points="242.32,50.76,260.13,39.27,253.37,59.35,242.32,50.76" style="stroke: #000000; stroke-width: 1.0;"/><!--MD5=[b8f652fe10cfca2eaa41a18df26b94b4]
reverse link Pizza to PizzaPoivrons--><path d="M296.62,55.21 C308.31,70.03 321.74,87.06 331.13,98.96 " fill="none" id="Pizza-backto-PizzaPoivrons" style="stroke: #000000; stroke-width: 1.0;"/><polygon fill="none" points="290.94,59.3,284.04,39.27,301.93,50.63,290.94,59.3" style="stroke: #000000; stroke-width: 1.0;"/><!--MD5=[ff1a9e6b98ae47b796b028162f0cee35]
reverse link Pizza to PizzaFromageStyleCorse--><path codeLine="18" d="M320.37,48.05 C356.27,65.9 403.56,89.42 430.89,103 " fill="none" id="Pizza-backto-PizzaFromageStyleCorse" style="stroke: #000000; stroke-width: 1.0;"/><polygon fill="none" points="317.09,54.24,302.3,39.06,323.32,41.7,317.09,54.24" style="stroke: #000000; stroke-width: 1.0;"/><!--MD5=[d14307d898a9bdc095797b7b8cb3fd0a]
@startuml

'- - - - - - - - - - - - - - - - - - - - - - - - - - - - - - - - - - -
' UML concepts illustrated
' JMB 2014
'- - - - - - - - - - - - - - - - - - - - - - - - - - - - - - - - - - -

!include config.cfg

abstract class Pizza {
}

class PizzaFromage extends Pizza
class PizzaGrecque extends Pizza
class PizzaPoivrons extends Pizza

class PizzaFromageStyleCorse as "..." {
}
Pizza <|- - PizzaFromageStyleCorse

@enduml

@startuml



hide empty members
hide empty methods


skinparam package {
	BackgroundColor empty
	BorderColor DarkSlateGray
	ArrowColor Black
	FontColor Black
	FontSize 12
	FontName TrebuchetMS
}
skinparam roundcorner 10

skinparam class {
	BackgroundColor AliceBlue
	BorderColor DarkSlateGray
	ArrowColor Black
	FontColor Black
	FontSize 12
	FontName TrebuchetMS
}
skinparam arrow {
    MessageAlign center
}

abstract class Pizza {
}

class PizzaFromage extends Pizza
class PizzaGrecque extends Pizza
class PizzaPoivrons extends Pizza

class PizzaFromageStyleCorse as "..." {
}
Pizza <|- - PizzaFromageStyleCorse

@enduml

PlantUML version 1.2020.18(Wed Sep 30 21:40:44 CEST 2020)
(GPL source distribution)
Java Runtime: OpenJDK Runtime Environment
JVM: OpenJDK 64-Bit Server VM
Default Encoding: UTF-8
Language: fr
Country: FR
--></g></svg>